<?xml version="1.0" encoding="UTF-8"?>
<svg version="1.1" xmlns="http://www.w3.org/2000/svg" width="215" height="215">
<path d="M0 0 C3.875 0.875 3.875 0.875 5 2 C5.08920843 4.19781267 5.106839 6.39854131 5.09765625 8.59814453 C5.09546585 9.635578 5.09546585 9.635578 5.0932312 10.69396973 C5.08941042 12.20701934 5.08327857 13.7200644 5.07516479 15.23309708 C5.06234988 17.66125626 5.05586744 20.08936023 5.05102539 22.51754761 C5.0376679 28.57805155 5.01405444 34.63850657 4.98962402 40.69897461 C4.96617219 46.59358003 4.94775664 52.48816851 4.9375 58.3828125 C4.93521896 59.62270306 4.93521896 59.62270306 4.93289185 60.88764191 C4.91385126 76.94057327 5.33469118 92.96158966 6 109 C5.05912033 108.99361008 4.11824066 108.98722015 3.14884949 108.9806366 C1.90372086 108.97566666 0.65859222 108.97069672 -0.62426758 108.96557617 C-1.85389725 108.95918625 -3.08352692 108.95279633 -4.35041809 108.94621277 C-9.52613881 109.02249211 -14.56654558 109.59918618 -19.6875 110.3125 C-21.09999023 110.48942383 -21.09999023 110.48942383 -22.54101562 110.66992188 C-34.15750059 111.78863104 -34.15750059 111.78863104 -44 117 C-44 116.34 -44 115.68 -44 115 C-44.56509277 115.24234375 -45.13018555 115.4846875 -45.71240234 115.734375 C-48.26503008 116.82663291 -50.81996859 117.91337745 -53.375 119 C-54.26445312 119.3815625 -55.15390625 119.763125 -56.0703125 120.15625 C-56.92109375 120.5171875 -57.771875 120.878125 -58.6484375 121.25 C-59.82672119 121.75273437 -59.82672119 121.75273437 -61.02880859 122.265625 C-63 123 -63 123 -65 123 C-65.33 123.66 -65.66 124.32 -66 125 C-67.4543323 125.75801563 -68.9397946 126.45675703 -70.4375 127.125 C-78.36047829 130.96162846 -85.00157407 136.60167901 -91 143 C-91.66 142.67 -92.32 142.34 -93 142 C-93.28187984 135.56388887 -93.47273235 129.12939788 -93.60424805 122.68847656 C-93.65913478 120.50395255 -93.73387872 118.31982441 -93.82983398 116.13671875 C-94.75464622 94.53468738 -94.75464622 94.53468738 -86.29049683 85.26235962 C-84.88309216 83.81902315 -83.44266057 82.40809749 -82 81 C-80.90663888 79.66220923 -79.83354366 78.30698312 -78.80078125 76.921875 C-78.38038574 76.38602783 -77.95999023 75.85018066 -77.52685547 75.2980957 C-76.67002683 74.20578561 -75.8136215 73.11314339 -74.95751953 72.02026367 C-71.51338196 67.63117083 -68.00769517 63.29505843 -64.4609375 58.98828125 C-62.81796466 56.96539463 -62.81796466 56.96539463 -62 54 C-60.33333333 52.33333333 -58.66666667 50.66666667 -57 49 C-56.08346853 47.74401243 -55.1875135 46.47275721 -54.3125 45.1875 C-53.1678125 43.6096875 -53.1678125 43.6096875 -52 42 C-51.34 42 -50.68 42 -50 42 C-49.59575806 41.12492798 -49.59575806 41.12492798 -49.18334961 40.23217773 C-47.99543816 37.9913949 -46.68826986 36.22971821 -45.06640625 34.28515625 C-44.49986328 33.59873047 -43.93332031 32.91230469 -43.34960938 32.20507812 C-42.46499023 31.14450195 -42.46499023 31.14450195 -41.5625 30.0625 C-37.54898251 25.24539595 -33.81906086 20.63812173 -31 15 C-23.45582791 7.34649208 -13.03124994 2.22155172 -2.16796875 1.921875 C-1.45253906 1.94765625 -0.73710937 1.9734375 0 2 C0 1.34 0 0.68 0 0 Z " fill="#FAFBFB" transform="translate(208,36)"/>
<path d="M0 0 C0.99 0.495 0.99 0.495 2 1 C-2.0182678 6.53869345 -6.30939005 11.79201754 -10.74804688 16.99536133 C-14.55594689 21.46137704 -18.27909458 25.9913383 -21.984375 30.54296875 C-24.60678793 33.73966978 -27.29212706 36.87553122 -30 40 C-29.67 40.66 -29.34 41.32 -29 42 C-29.70769531 42.36480469 -30.41539062 42.72960938 -31.14453125 43.10546875 C-34.63984998 45.42452427 -37.01729281 48.1118843 -39.6875 51.3125 C-40.17283203 51.86873047 -40.65816406 52.42496094 -41.15820312 52.99804688 C-44.10826921 56.49336656 -45.8329988 59.48896028 -47 64 C-47.99 64 -48.98 64 -50 64 C-51.64451823 65.96990419 -53.11049955 67.89661273 -54.5625 70 C-55.99422692 72.05391519 -57.45281081 74.0271136 -59 76 C-59.66 76 -60.32 76 -61 76 C-61.33 77.98 -61.66 79.96 -62 82 C-63.32 82 -64.64 82 -66 82 C-67.11841368 84.08770553 -67.9708176 85.85408801 -68.4375 88.1875 C-68.623125 88.785625 -68.80875 89.38375 -69 90 C-70.485 90.495 -70.485 90.495 -72 91 C-73.2937625 92.38358091 -73.2937625 92.38358091 -74.5 94.1875 C-77.32334295 98.10104469 -80.25666654 101.90384748 -83.25 105.6875 C-88.55682279 112.41509026 -93.79037714 119.19697839 -99 126 C-102.90295317 125.44598261 -104.65690576 123.69343607 -107.37109375 120.921875 C-108.19287109 120.09042969 -109.01464844 119.25898438 -109.86132812 118.40234375 C-110.71146484 117.52707031 -111.56160156 116.65179688 -112.4375 115.75 C-113.28376953 114.89019531 -114.13003906 114.03039062 -115.00195312 113.14453125 C-117.3399131 110.76812401 -119.67077299 108.3849618 -122 106 C-125.91396673 102.0227191 -129.96520387 98.22318861 -134.0625 94.4375 C-140.87378689 88.11651812 -147.48018681 81.61977626 -154 75 C-154.66 74.34 -155.32 73.68 -156 73 C-152.83592219 69.71773422 -149.29034483 67.12990098 -145.625 64.4375 C-144.965 63.94314453 -144.305 63.44878906 -143.625 62.93945312 C-140.20032823 60.41870368 -137.08895761 58.33404216 -133 57 C-133 56.34 -133 55.68 -133 55 C-132.236875 55.309375 -131.47375 55.61875 -130.6875 55.9375 C-128.81210323 56.67893593 -126.91315348 57.36228217 -125 58 C-124.401875 58.61875 -123.80375 59.2375 -123.1875 59.875 C-120.68149263 62.30940716 -118.16380159 63.56190837 -115 65 C-115 65.66 -115 66.32 -115 67 C-113.68 67 -112.36 67 -111 67 C-110.525625 67.515625 -110.05125 68.03125 -109.5625 68.5625 C-109.046875 69.036875 -108.53125 69.51125 -108 70 C-104.09141675 69.80457084 -102.62731489 68.7057422 -100 66 C-98.80833533 65.06176627 -97.5985461 64.1462601 -96.375 63.25 C-93.48552441 61.11929642 -90.63656395 58.9470079 -87.8125 56.73046875 C-83.14320223 53.09112083 -78.3987322 49.56323694 -73.625 46.0625 C-72.7906543 45.44987305 -71.95630859 44.83724609 -71.09667969 44.20605469 C-69.45646397 43.00220908 -67.8158559 41.79889783 -66.17480469 40.59619141 C-64.39700673 39.29138191 -62.62363972 37.98053712 -60.8515625 36.66796875 C-44.90245553 24.90969319 -28.19275906 14.63851494 -10.6875 5.375 C-9.15512695 4.55636475 -9.15512695 4.55636475 -7.59179688 3.72119141 C-6.63724609 3.22280762 -5.68269531 2.72442383 -4.69921875 2.2109375 C-3.84158936 1.76024902 -2.98395996 1.30956055 -2.1003418 0.84521484 C-1.407229 0.56629395 -0.71411621 0.28737305 0 0 Z " fill="#83BF58" transform="translate(196,15)"/>
<path d="M0 0 C1.50376737 0.06564064 3.00452042 0.20421992 4.5 0.375 C5.39460938 0.47425781 6.28921875 0.57351562 7.2109375 0.67578125 C8.13132812 0.78277344 9.05171875 0.88976562 10 1 C11.70829354 1.18786219 13.41662368 1.37539212 15.125 1.5625 C16.40375 1.706875 17.6825 1.85125 19 2 C19 2.66 19 3.32 19 4 C19.99 3.67 20.98 3.34 22 3 C22 3.66 22 4.32 22 5 C22.886875 5.144375 23.77375 5.28875 24.6875 5.4375 C27.47117646 5.91019978 30.23483757 6.43070185 33 7 C33 7.66 33 8.32 33 9 C33.55469971 9.16943115 34.10939941 9.3388623 34.6809082 9.51342773 C40.14001723 11.24687247 45.14436464 13.35587409 50.1875 16.0625 C50.91582031 16.45099121 51.64414063 16.83948242 52.39453125 17.23974609 C59.71362637 21.23879001 66.36965792 25.96060684 73 31 C73.92296875 31.68707031 74.8459375 32.37414063 75.796875 33.08203125 C81.69593148 37.54389722 81.69593148 37.54389722 84 41 C83.40574219 41.4125 82.81148438 41.825 82.19921875 42.25 C71.27123828 49.60663788 71.27123828 49.60663788 60.9921875 57.796875 C59 59 59 59 56.66796875 58.94140625 C53.23958031 57.73168207 50.33360068 55.91849354 47.3125 53.9375 C43.45484687 51.10435218 43.45484687 51.10435218 39 50 C39 49.34 39 48.68 39 48 C38.01 48.33 37.02 48.66 36 49 C36 48.01 36 47.02 36 46 C32.74718472 45.51207771 30.65286916 45.59985439 27.8203125 47.3359375 C25.8332091 48.84217602 23.8970886 50.38217825 22 52 C22.33 52.66 22.66 53.32 23 54 C21.01432292 54.42317708 19.02864583 54.84635417 17.04296875 55.26953125 C14.64948158 56.12532877 13.75030933 57.17658193 12 59 C10.15014321 60.26669079 8.27252994 61.49340794 6.375 62.6875 C5.39273438 63.31011719 4.41046875 63.93273437 3.3984375 64.57421875 C1 66 1 66 0 66 C-0.15359878 57.54241822 -0.30178042 49.08476662 -0.4429636 40.62696934 C-0.50868604 36.70007172 -0.57630471 32.7732255 -0.64819336 28.84643555 C-0.71744515 25.05992533 -0.7817991 21.27336119 -0.84269524 17.48670769 C-0.86685111 16.03892916 -0.8927997 14.59117944 -0.92053413 13.14346504 C-0.95895022 11.12250107 -0.99051574 9.10141032 -1.02172852 7.08032227 C-1.04171402 5.92782486 -1.06169952 4.77532745 -1.08229065 3.58790588 C-1 1 -1 1 0 0 Z " fill="#56BAF1" transform="translate(32,18)"/>
<path d="M0 0 C2.68970381 0.20349733 5.32685271 0.47491181 8 0.8125 C8.75023437 0.89564453 9.50046875 0.97878906 10.2734375 1.06445312 C12.19297958 1.30179723 14.09896816 1.64355653 16 2 C17.15149328 4.30298656 17.12336988 5.58996098 17.12025452 8.15078735 C17.12162918 9.02019455 17.12300385 9.88960175 17.12442017 10.78535461 C17.12082489 11.74129013 17.11722961 12.69722565 17.11352539 13.68212891 C17.11367142 14.68703873 17.11381744 15.69194855 17.1139679 16.72731018 C17.11326929 20.06041598 17.10547933 23.39346642 17.09765625 26.7265625 C17.09579188 29.03298919 17.09436807 31.33941628 17.09336853 33.64584351 C17.08954482 39.72531217 17.07971576 45.80475706 17.06866455 51.88421631 C17.0584473 58.08426593 17.05387024 64.28431939 17.04882812 70.484375 C17.03809338 82.65626046 17.02101869 94.82812826 17 107 C20.22754814 107.67466746 23.45726935 108.33830569 26.6875 109 C28.05551758 109.28617188 28.05551758 109.28617188 29.45117188 109.578125 C30.78051758 109.84882813 30.78051758 109.84882813 32.13671875 110.125 C32.94842529 110.29257813 33.76013184 110.46015625 34.59643555 110.6328125 C37.03642169 111.07808308 37.03642169 111.07808308 39.67895508 110.9296875 C42 111 42 111 44 113 C46.30671473 113.83111719 48.59707154 114.59070714 50.9375 115.3125 C57.53003499 117.41660216 63.7750614 119.95870983 70 123 C70 123.66 70 124.32 70 125 C70.73089844 125.268125 71.46179688 125.53625 72.21484375 125.8125 C74.9393574 126.97414397 77.13671098 128.3124946 79.5625 130 C81.74618908 131.51382259 83.80207502 132.90508038 86.19921875 134.0546875 C88.52431895 135.27523902 89.04387525 136.60968813 90 139 C88 140 88 140 86.0625 139.75 C84 139 84 139 82.73828125 137.62109375 C80.42727895 135.46588935 78.03729832 134.52172112 75.125 133.3125 C74.09632812 132.87550781 73.06765625 132.43851563 72.0078125 131.98828125 C69.10077543 130.85134603 69.10077543 130.85134603 66.3046875 131.04296875 C64 131 64 131 62.60327148 129.57958984 C60.75631765 127.75991704 59.53036919 127.33509029 57.04296875 126.68359375 C56.26832275 126.47766602 55.49367676 126.27173828 54.69555664 126.05957031 C53.86789795 125.85428711 53.04023926 125.64900391 52.1875 125.4375 C51.32439209 125.22061523 50.46128418 125.00373047 49.57202148 124.78027344 C33.13272437 120.75257689 16.8667803 120.43140237 0 120 C-1.2134411 117.5731178 -1.12579416 116.03658013 -1.12698364 113.32444763 C-1.12980347 112.33868744 -1.13262329 111.35292725 -1.13552856 110.33729553 C-1.13350433 109.25202072 -1.1314801 108.16674591 -1.12939453 107.04858398 C-1.13114685 105.90873047 -1.13289917 104.76887695 -1.13470459 103.59448242 C-1.13912033 99.81167089 -1.13618626 96.02890579 -1.1328125 92.24609375 C-1.13348557 89.62817882 -1.13445562 87.01026396 -1.13571167 84.39234924 C-1.13753213 78.90031426 -1.13513001 73.40829271 -1.13037109 67.91625977 C-1.124926 61.55875429 -1.12669341 55.20128087 -1.1321975 48.84377617 C-1.13727401 42.73661143 -1.13674732 36.62946096 -1.13381577 30.522295 C-1.13314629 27.91903746 -1.13397563 25.3157791 -1.13629532 22.71252251 C-1.13882007 19.08233308 -1.13498388 15.45220622 -1.12939453 11.82202148 C-1.13141876 10.73472244 -1.13344299 9.6474234 -1.13552856 8.5271759 C-1.13270874 7.54423553 -1.12988892 6.56129517 -1.12698364 5.54856873 C-1.1264181 4.25965052 -1.1264181 4.25965052 -1.12584114 2.94469357 C-1 1 -1 1 0 0 Z " fill="#46A8F3" transform="translate(8,34)"/>
<path d="M0 0 C3.24019858 1.41711025 5.33720625 3.12208615 7.78515625 5.66015625 C8.48060547 6.37107422 9.17605469 7.08199219 9.89257812 7.81445312 C10.60865234 8.55630859 11.32472656 9.29816406 12.0625 10.0625 C13.48615365 11.53713498 14.91434578 13.00740572 16.34765625 14.47265625 C17.29137085 15.45117554 17.29137085 15.45117554 18.25415039 16.44946289 C20.02487465 18.22691833 20.02487465 18.22691833 23 19 C24.02611949 20.65071396 25.02308143 22.31970006 26 24 C27.29579647 25.36984198 28.61992749 26.7151049 30 28 C30.66 27.67 31.32 27.34 32 27 C32.2475 27.78375 32.495 28.5675 32.75 29.375 C33.71691311 32.10626806 33.71691311 32.10626806 35.90625 32.93359375 C38.37407342 34.1905262 39.2230477 35.40156259 40.75 37.6875 C43.39085403 41.36230437 46.24526481 44.10270272 49.69921875 47 C52.57505228 49.49987567 55.29282061 52.13234445 58 54.8125 C58.49330811 55.29307861 58.98661621 55.77365723 59.49487305 56.26879883 C60.70343876 57.47351629 61.85693607 58.73296406 63 60 C63 60.66 63 61.32 63 62 C64.485 62.495 64.485 62.495 66 63 C80 78.15355805 80 78.15355805 80 83 C78.02 82.505 78.02 82.505 76 82 C76 81.01 76 80.02 76 79 C75.34 79 74.68 79 74 79 C74 78.34 74 77.68 74 77 C73.484375 76.773125 72.96875 76.54625 72.4375 76.3125 C66.838174 73.29747831 62.4840147 69.4840147 58 65 C56.04109119 63.60699818 54.0360882 62.27754554 52 61 C51.33355469 60.56300781 50.66710937 60.12601563 49.98046875 59.67578125 C49.28566406 59.22589844 48.59085938 58.77601563 47.875 58.3125 C47.23304687 57.89613281 46.59109375 57.47976562 45.9296875 57.05078125 C44.05775681 55.91897278 44.05775681 55.91897278 42.0078125 55.54296875 C40 55 40 55 38.1875 53.62109375 C35.34028851 51.51110666 32.29000329 50.30113738 29 49.0625 C28.31808594 48.80452637 27.63617188 48.54655273 26.93359375 48.28076172 C18.20194833 45.14307071 9.11639887 43.58789734 0 42 C-1.17346409 37.46023488 -1.03915118 33.06214686 -0.87890625 28.41796875 C-0.85529526 27.60378983 -0.83168427 26.7896109 -0.80735779 25.95075989 C-0.73108411 23.36281301 -0.64690482 20.77519318 -0.5625 18.1875 C-0.50924292 16.42775012 -0.4565028 14.66798451 -0.40429688 12.90820312 C-0.27551841 8.60526357 -0.13965162 4.30259983 0 0 Z " fill="#42A5F4" transform="translate(32,94)"/>
<path d="M0 0 C2.68970381 0.20349733 5.32685271 0.47491181 8 0.8125 C8.75023437 0.89564453 9.50046875 0.97878906 10.2734375 1.06445312 C12.19297958 1.30179723 14.09896816 1.64355653 16 2 C17.15149328 4.30298656 17.12336988 5.58996098 17.12025452 8.15078735 C17.12162918 9.02019455 17.12300385 9.88960175 17.12442017 10.78535461 C17.12082489 11.74129013 17.11722961 12.69722565 17.11352539 13.68212891 C17.11367142 14.68703873 17.11381744 15.69194855 17.1139679 16.72731018 C17.11326929 20.06041598 17.10547933 23.39346642 17.09765625 26.7265625 C17.09579188 29.03298919 17.09436807 31.33941628 17.09336853 33.64584351 C17.08954482 39.72531217 17.07971576 45.80475706 17.06866455 51.88421631 C17.0584473 58.08426593 17.05387024 64.28431939 17.04882812 70.484375 C17.03809338 82.65626046 17.02101869 94.82812826 17 107 C17.59538574 107.11069824 18.19077148 107.22139648 18.80419922 107.33544922 C21.49604676 107.84059772 24.18547354 108.35764225 26.875 108.875 C27.81214844 109.04902344 28.74929687 109.22304687 29.71484375 109.40234375 C30.61074219 109.57636719 31.50664063 109.75039062 32.4296875 109.9296875 C33.25710449 110.08679199 34.08452148 110.24389648 34.93701172 110.40576172 C37 111 37 111 39 113 C30.94063638 112.29434143 23.02729934 111.14675705 15 110 C15 75.02 15 40.04 15 4 C8.07 3.505 8.07 3.505 1 3 C1 40.95 1 78.9 1 118 C9.25 118 17.5 118 26 118 C32.14330318 118.77815174 38.00209074 119.61935927 44 121 C44.77537109 121.17692383 45.55074219 121.35384766 46.34960938 121.53613281 C57.57835165 124.16403976 68.30406664 127.70687364 79 132 C78.01 131.01 77.02 130.02 76 129 C86.63815789 132.86842105 86.63815789 132.86842105 89.4375 137.25 C89.623125 137.8275 89.80875 138.405 90 139 C88 140 88 140 86.0625 139.75 C84 139 84 139 82.73828125 137.62109375 C80.42727895 135.46588935 78.03729832 134.52172112 75.125 133.3125 C74.09632812 132.87550781 73.06765625 132.43851563 72.0078125 131.98828125 C69.10077543 130.85134603 69.10077543 130.85134603 66.3046875 131.04296875 C64 131 64 131 62.60327148 129.57958984 C60.75631765 127.75991704 59.53036919 127.33509029 57.04296875 126.68359375 C56.26832275 126.47766602 55.49367676 126.27173828 54.69555664 126.05957031 C53.86789795 125.85428711 53.04023926 125.64900391 52.1875 125.4375 C51.32439209 125.22061523 50.46128418 125.00373047 49.57202148 124.78027344 C33.13272437 120.75257689 16.8667803 120.43140237 0 120 C-1.2134411 117.5731178 -1.12579416 116.03658013 -1.12698364 113.32444763 C-1.12980347 112.33868744 -1.13262329 111.35292725 -1.13552856 110.33729553 C-1.13350433 109.25202072 -1.1314801 108.16674591 -1.12939453 107.04858398 C-1.13114685 105.90873047 -1.13289917 104.76887695 -1.13470459 103.59448242 C-1.13912033 99.81167089 -1.13618626 96.02890579 -1.1328125 92.24609375 C-1.13348557 89.62817882 -1.13445562 87.01026396 -1.13571167 84.39234924 C-1.13753213 78.90031426 -1.13513001 73.40829271 -1.13037109 67.91625977 C-1.124926 61.55875429 -1.12669341 55.20128087 -1.1321975 48.84377617 C-1.13727401 42.73661143 -1.13674732 36.62946096 -1.13381577 30.522295 C-1.13314629 27.91903746 -1.13397563 25.3157791 -1.13629532 22.71252251 C-1.13882007 19.08233308 -1.13498388 15.45220622 -1.12939453 11.82202148 C-1.13141876 10.73472244 -1.13344299 9.6474234 -1.13552856 8.5271759 C-1.13270874 7.54423553 -1.12988892 6.56129517 -1.12698364 5.54856873 C-1.1264181 4.25965052 -1.1264181 4.25965052 -1.12584114 2.94469357 C-1 1 -1 1 0 0 Z " fill="#315B7D" transform="translate(8,34)"/>
<path d="M0 0 C3.875 0.875 3.875 0.875 5 2 C5.08920843 4.19781267 5.106839 6.39854131 5.09765625 8.59814453 C5.09546585 9.635578 5.09546585 9.635578 5.0932312 10.69396973 C5.08941042 12.20701934 5.08327857 13.7200644 5.07516479 15.23309708 C5.06234988 17.66125626 5.05586744 20.08936023 5.05102539 22.51754761 C5.0376679 28.57805155 5.01405444 34.63850657 4.98962402 40.69897461 C4.96617219 46.59358003 4.94775664 52.48816851 4.9375 58.3828125 C4.93521896 59.62270306 4.93521896 59.62270306 4.93289185 60.88764191 C4.91385126 76.94057327 5.33469118 92.96158966 6 109 C5.05912033 108.99361008 4.11824066 108.98722015 3.14884949 108.9806366 C1.90372086 108.97566666 0.65859222 108.97069672 -0.62426758 108.96557617 C-1.85389725 108.95918625 -3.08352692 108.95279633 -4.35041809 108.94621277 C-9.52613881 109.02249211 -14.56654558 109.59918618 -19.6875 110.3125 C-21.09999023 110.48942383 -21.09999023 110.48942383 -22.54101562 110.66992188 C-34.15750059 111.78863104 -34.15750059 111.78863104 -44 117 C-44 116.34 -44 115.68 -44 115 C-44.56509277 115.24234375 -45.13018555 115.4846875 -45.71240234 115.734375 C-48.26503008 116.82663291 -50.81996859 117.91337745 -53.375 119 C-54.26445312 119.3815625 -55.15390625 119.763125 -56.0703125 120.15625 C-56.92109375 120.5171875 -57.771875 120.878125 -58.6484375 121.25 C-59.82672119 121.75273437 -59.82672119 121.75273437 -61.02880859 122.265625 C-63 123 -63 123 -65 123 C-65.33 123.66 -65.66 124.32 -66 125 C-67.4543323 125.75801563 -68.9397946 126.45675703 -70.4375 127.125 C-78.36047829 130.96162846 -85.00157407 136.60167901 -91 143 C-91.66 142.67 -92.32 142.34 -93 142 C-93.28187984 135.56388887 -93.47273235 129.12939788 -93.60424805 122.68847656 C-93.65913478 120.50395255 -93.73387872 118.31982441 -93.82983398 116.13671875 C-94.35575607 103.85207889 -94.62138377 94.44360565 -86.14176941 84.91244507 C-83.91083428 82.61329819 -81.6689257 80.7792838 -79 79 C-80.08289246 81.57877437 -81.17963874 83.18563148 -83.14428711 85.21582031 C-90.80839771 93.40250129 -91.03809927 100.7742827 -90.79101562 111.6953125 C-90.71584649 113.71357926 -90.63966234 115.73180846 -90.5625 117.75 C-90.51727712 119.81501632 -90.47622635 121.88012843 -90.43945312 123.9453125 C-90.34106646 128.96593903 -90.18622122 133.98189513 -90 139 C-89.53456787 138.52260376 -89.06913574 138.04520752 -88.58959961 137.55334473 C-87.97093018 136.92536987 -87.35226074 136.29739502 -86.71484375 135.65039062 C-86.10503662 135.02861938 -85.49522949 134.40684814 -84.86694336 133.76623535 C-82.16051525 131.20579934 -79.22003039 129.3454634 -76 127.5 C-75.35409912 127.12327148 -74.70819824 126.74654297 -74.04272461 126.35839844 C-56.91008734 116.53748511 -39.5086144 110.86436005 -20 108 C-18.824375 107.80921875 -17.64875 107.6184375 -16.4375 107.421875 C-9.98589789 106.80851846 -3.48069256 107 3 107 C3 72.68 3 38.36 3 3 C-15.0114708 6.73457233 -15.0114708 6.73457233 -23 11 C-23.99 10.505 -23.99 10.505 -25 10 C-20.74043458 6.90449902 -17.0804702 5.16025951 -11.9375 3.75 C-10.75027344 3.41484375 -9.56304687 3.0796875 -8.33984375 2.734375 C-5.41157381 2.0904981 -2.97764001 1.84239335 0 2 C0 1.34 0 0.68 0 0 Z " fill="#889191" transform="translate(208,36)"/>
<path d="M0 0 C0.99 0.495 0.99 0.495 2 1 C-0.56628532 4.13657095 -3.22671929 4.74271731 -7 6 C-10.94065925 7.92355136 -14.74148939 10.09975583 -18.5625 12.25 C-19.6656958 12.8697168 -20.7688916 13.48943359 -21.90551758 14.12792969 C-32.63382088 20.23373127 -42.87294776 26.95164222 -53 34 C-53.6496875 34.44794922 -54.299375 34.89589844 -54.96875 35.35742188 C-64.55533834 41.97919248 -73.70895481 49.14696297 -82.87402344 56.33544922 C-86.99312043 59.56052998 -91.13243296 62.75826022 -95.29296875 65.9296875 C-96.9357782 67.186093 -98.56702005 68.4580952 -100.17578125 69.7578125 C-104.34363444 73.02426704 -104.34363444 73.02426704 -107.21875 72.91796875 C-111.11623321 71.63158033 -114.15362746 69.46414754 -117.5 67.125 C-119.42399591 65.80296717 -121.34963697 64.4837327 -123.28125 63.17285156 C-124.75056852 62.17020864 -126.20502744 61.1458482 -127.65625 60.1171875 C-129.9137417 58.84741762 -129.9137417 58.84741762 -132.30078125 58.93359375 C-136.46414699 60.5784546 -139.69743584 63.29887453 -143.1875 66.0625 C-144.61522536 67.18255881 -146.04606637 68.29866119 -147.48046875 69.41015625 C-148.10848389 69.90652588 -148.73649902 70.40289551 -149.38354492 70.91430664 C-151 72 -151 72 -153 72 C-153 72.66 -153 73.32 -153 74 C-152.43482162 74.23789749 -151.86964325 74.47579498 -151.28733826 74.72090149 C-148.49232737 76.28389474 -146.63613068 78.1685699 -144.40258789 80.46557617 C-143.49807388 81.38960739 -142.59355988 82.31363861 -141.66163635 83.26567078 C-141.18289125 83.7591419 -140.70414616 84.25261303 -140.21089363 84.76103783 C-138.70734758 86.30872687 -137.19590073 87.84826512 -135.68174744 89.38557434 C-131.37890463 93.75553321 -127.08452991 98.13354259 -122.81079102 102.53198242 C-120.19304272 105.22495214 -117.56093972 107.90314625 -114.91900444 110.57238197 C-113.9154934 111.59201371 -112.91756845 112.61717437 -111.92540169 113.64784813 C-110.53978926 115.08630684 -109.13372499 116.50498052 -107.72680664 117.92260742 C-106.93278946 118.73598068 -106.13877228 119.54935394 -105.32069397 120.38737488 C-103.10948211 122.26505912 -103.10948211 122.26505912 -100.36131287 121.92158508 C-96.8002804 120.53176739 -95.05370973 117.80752731 -92.875 114.8125 C-91.91171552 113.53886794 -90.94816591 112.26543638 -89.984375 110.9921875 C-89.49388672 110.33444336 -89.00339844 109.67669922 -88.49804688 108.99902344 C-86.08398286 105.77764857 -83.60615355 102.60729504 -81.125 99.4375 C-80.46540283 98.58152222 -80.46540283 98.58152222 -79.79248047 97.70825195 C-77.06271657 94.20292799 -74.19290394 91.07274089 -71 88 C-72.5592626 93.08966849 -75.69617876 96.56657589 -79.0625 100.5625 C-80.24138176 101.98549117 -81.41845307 103.40998406 -82.59375 104.8359375 C-83.17253906 105.5381543 -83.75132813 106.24037109 -84.34765625 106.96386719 C-87.38322093 110.70450097 -90.24000315 114.57136704 -93.09765625 118.44921875 C-95.01008674 121.01352494 -96.98816122 123.51320597 -99 126 C-102.90295317 125.44598261 -104.65690576 123.69343607 -107.37109375 120.921875 C-108.19287109 120.09042969 -109.01464844 119.25898438 -109.86132812 118.40234375 C-110.71146484 117.52707031 -111.56160156 116.65179688 -112.4375 115.75 C-113.28376953 114.89019531 -114.13003906 114.03039062 -115.00195312 113.14453125 C-117.3399131 110.76812401 -119.67077299 108.3849618 -122 106 C-125.91396673 102.0227191 -129.96520387 98.22318861 -134.0625 94.4375 C-140.87378689 88.11651812 -147.48018681 81.61977626 -154 75 C-154.66 74.34 -155.32 73.68 -156 73 C-152.83592219 69.71773422 -149.29034483 67.12990098 -145.625 64.4375 C-144.965 63.94314453 -144.305 63.44878906 -143.625 62.93945312 C-140.20032823 60.41870368 -137.08895761 58.33404216 -133 57 C-133 56.34 -133 55.68 -133 55 C-132.236875 55.309375 -131.47375 55.61875 -130.6875 55.9375 C-128.81210323 56.67893593 -126.91315348 57.36228217 -125 58 C-124.401875 58.61875 -123.80375 59.2375 -123.1875 59.875 C-120.68149263 62.30940716 -118.16380159 63.56190837 -115 65 C-115 65.66 -115 66.32 -115 67 C-113.68 67 -112.36 67 -111 67 C-110.525625 67.515625 -110.05125 68.03125 -109.5625 68.5625 C-109.046875 69.036875 -108.53125 69.51125 -108 70 C-104.09141675 69.80457084 -102.62731489 68.7057422 -100 66 C-98.80833533 65.06176627 -97.5985461 64.1462601 -96.375 63.25 C-93.48552441 61.11929642 -90.63656395 58.9470079 -87.8125 56.73046875 C-83.14320223 53.09112083 -78.3987322 49.56323694 -73.625 46.0625 C-72.7906543 45.44987305 -71.95630859 44.83724609 -71.09667969 44.20605469 C-69.45646397 43.00220908 -67.8158559 41.79889783 -66.17480469 40.59619141 C-64.39700673 39.29138191 -62.62363972 37.98053712 -60.8515625 36.66796875 C-44.90245553 24.90969319 -28.19275906 14.63851494 -10.6875 5.375 C-9.15512695 4.55636475 -9.15512695 4.55636475 -7.59179688 3.72119141 C-6.63724609 3.22280762 -5.68269531 2.72442383 -4.69921875 2.2109375 C-3.84158936 1.76024902 -2.98395996 1.30956055 -2.1003418 0.84521484 C-1.407229 0.56629395 -0.71411621 0.28737305 0 0 Z " fill="#4A785E" transform="translate(196,15)"/>
<path d="M0 0 C1.50376737 0.06564064 3.00452042 0.20421992 4.5 0.375 C5.39460938 0.47425781 6.28921875 0.57351562 7.2109375 0.67578125 C8.13132812 0.78277344 9.05171875 0.88976562 10 1 C11.70829354 1.18786219 13.41662368 1.37539212 15.125 1.5625 C16.40375 1.706875 17.6825 1.85125 19 2 C19 2.66 19 3.32 19 4 C19.99 3.67 20.98 3.34 22 3 C22 3.66 22 4.32 22 5 C22.886875 5.144375 23.77375 5.28875 24.6875 5.4375 C27.47117646 5.91019978 30.23483757 6.43070185 33 7 C33 7.66 33 8.32 33 9 C33.55469971 9.16943115 34.10939941 9.3388623 34.6809082 9.51342773 C40.14001723 11.24687247 45.14436464 13.35587409 50.1875 16.0625 C50.91582031 16.45099121 51.64414063 16.83948242 52.39453125 17.23974609 C59.71362637 21.23879001 66.36965792 25.96060684 73 31 C73.92296875 31.68707031 74.8459375 32.37414063 75.796875 33.08203125 C81.69593148 37.54389722 81.69593148 37.54389722 84 41 C80.7 43.31 77.4 45.62 74 48 C73.34 47.67 72.68 47.34 72 47 C73.1196986 45.99406757 74.2459412 44.9954151 75.375 44 C76.00148438 43.443125 76.62796875 42.88625 77.2734375 42.3125 C79 41 79 41 81 41 C60.18181981 19.02525425 29.64358391 8.36524087 1 2 C1 22.13 1 42.26 1 63 C7.27 58.71 13.54 54.42 20 50 C21.98 48.68 23.96 47.36 26 46 C26.66 46.33 27.32 46.66 28 47 C25.03 49.475 25.03 49.475 22 52 C22.33 52.66 22.66 53.32 23 54 C21.01432292 54.42317708 19.02864583 54.84635417 17.04296875 55.26953125 C14.64948158 56.12532877 13.75030933 57.17658193 12 59 C10.15014321 60.26669079 8.27252994 61.49340794 6.375 62.6875 C5.39273438 63.31011719 4.41046875 63.93273437 3.3984375 64.57421875 C1 66 1 66 0 66 C-0.15359878 57.54241822 -0.30178042 49.08476662 -0.4429636 40.62696934 C-0.50868604 36.70007172 -0.57630471 32.7732255 -0.64819336 28.84643555 C-0.71744515 25.05992533 -0.7817991 21.27336119 -0.84269524 17.48670769 C-0.86685111 16.03892916 -0.8927997 14.59117944 -0.92053413 13.14346504 C-0.95895022 11.12250107 -0.99051574 9.10141032 -1.02172852 7.08032227 C-1.04171402 5.92782486 -1.06169952 4.77532745 -1.08229065 3.58790588 C-1 1 -1 1 0 0 Z " fill="#396778" transform="translate(32,18)"/>
<path d="M0 0 C3.24019858 1.41711025 5.33720625 3.12208615 7.78515625 5.66015625 C8.48060547 6.37107422 9.17605469 7.08199219 9.89257812 7.81445312 C10.60865234 8.55630859 11.32472656 9.29816406 12.0625 10.0625 C13.48615365 11.53713498 14.91434578 13.00740572 16.34765625 14.47265625 C17.29137085 15.45117554 17.29137085 15.45117554 18.25415039 16.44946289 C20.02487465 18.22691833 20.02487465 18.22691833 23 19 C24.02611949 20.65071396 25.02308143 22.31970006 26 24 C27.29579647 25.36984198 28.61992749 26.7151049 30 28 C30.66 27.67 31.32 27.34 32 27 C32.2475 27.78375 32.495 28.5675 32.75 29.375 C33.71691311 32.10626806 33.71691311 32.10626806 35.90625 32.93359375 C38.37407342 34.1905262 39.2230477 35.40156259 40.75 37.6875 C43.39017187 41.36135512 46.23907133 44.10313238 49.69921875 46.9921875 C54.37265827 51.0705371 58.65210961 55.5801776 63 60 C62.505 60.99 62.505 60.99 62 62 C61.5875 61.58226318 61.175 61.16452637 60.75 60.73413086 C58.83611222 58.79914973 56.91808329 56.86832199 55 54.9375 C54.02740234 53.95233398 54.02740234 53.95233398 53.03515625 52.94726562 C52.05869141 51.9659668 52.05869141 51.9659668 51.0625 50.96484375 C50.18271484 50.07720337 50.18271484 50.07720337 49.28515625 49.17163086 C47.32691123 47.31067045 45.32873381 45.54714215 43.28271484 43.78491211 C38.79075265 39.87600684 34.599494 35.70893618 30.4140625 31.4765625 C29.63106781 30.68978119 28.84807312 29.90299988 28.04135132 29.09237671 C25.56677234 26.60568365 23.09549161 24.11575341 20.625 21.625 C17.34920073 18.32267604 14.07014826 15.02363303 10.7890625 11.7265625 C10.03702545 10.96622711 9.2849884 10.20589172 8.51016235 9.42251587 C7.81538788 8.72443817 7.1206134 8.02636047 6.40478516 7.30712891 C5.79381989 6.69092682 5.18285461 6.07472473 4.55337524 5.43984985 C3.04241909 3.90452401 3.04241909 3.90452401 1 3 C1 15.21 1 27.42 1 40 C6.61 40.99 12.22 41.98 18 43 C21.00046042 43.81896625 23.74942384 44.6026927 26.625 45.6875 C27.30884766 45.93661133 27.99269531 46.18572266 28.69726562 46.44238281 C48.46238032 53.92476064 48.46238032 53.92476064 51 59 C46.50056072 58.0001246 41.91731133 56.5666919 38.3125 53.62109375 C35.3916993 51.57357299 32.31627225 50.31102725 29 49.0625 C28.31808594 48.80452637 27.63617188 48.54655273 26.93359375 48.28076172 C18.20194833 45.14307071 9.11639887 43.58789734 0 42 C-1.17346409 37.46023488 -1.03915118 33.06214686 -0.87890625 28.41796875 C-0.85529526 27.60378983 -0.83168427 26.7896109 -0.80735779 25.95075989 C-0.73108411 23.36281301 -0.64690482 20.77519318 -0.5625 18.1875 C-0.50924292 16.42775012 -0.4565028 14.66798451 -0.40429688 12.90820312 C-0.27551841 8.60526357 -0.13965162 4.30259983 0 0 Z " fill="#33667D" transform="translate(32,94)"/>
<path d="M0 0 C6.93 0.495 6.93 0.495 14 1 C14 35.65 14 70.3 14 106 C13.67 106 13.34 106 13 106 C13 72.01 13 38.02 13 3 C11.68 3.33 10.36 3.66 9 4 C6.36 3.01 3.72 2.02 1 1 C1 38.62 1 76.24 1 115 C0.67 115 0.34 115 0 115 C0 77.05 0 39.1 0 0 Z " fill="#5ADAFD" transform="translate(9,37)"/>
<path d="M0 0 C0.99 0.495 0.99 0.495 2 1 C-0.56628532 4.13657095 -3.22671929 4.74271731 -7 6 C-10.94065925 7.92355136 -14.74148939 10.09975583 -18.5625 12.25 C-20.2172937 13.1795752 -20.2172937 13.1795752 -21.90551758 14.12792969 C-32.63382088 20.23373127 -42.87294776 26.95164222 -53 34 C-53.6496875 34.44794922 -54.299375 34.89589844 -54.96875 35.35742188 C-64.54509556 41.97211746 -73.68847816 49.13207087 -82.84326172 56.31347656 C-86.08984302 58.85223405 -89.35570878 61.36559313 -92.625 63.875 C-93.66914062 64.67679687 -94.71328125 65.47859375 -95.7890625 66.3046875 C-96.51867187 66.86414063 -97.24828125 67.42359375 -98 68 C-98.66 67.67 -99.32 67.34 -100 67 C-98.85732126 65.97563677 -97.71059409 64.95579008 -96.5625 63.9375 C-95.92441406 63.36902344 -95.28632812 62.80054688 -94.62890625 62.21484375 C-87.87076238 56.52113265 -80.74837185 51.28630602 -73.625 46.0625 C-72.7906543 45.44987305 -71.95630859 44.83724609 -71.09667969 44.20605469 C-69.45646397 43.00220908 -67.8158559 41.79889783 -66.17480469 40.59619141 C-64.39700673 39.29138191 -62.62363972 37.98053712 -60.8515625 36.66796875 C-44.90245553 24.90969319 -28.19275906 14.63851494 -10.6875 5.375 C-9.66591797 4.82924316 -8.64433594 4.28348633 -7.59179688 3.72119141 C-6.63724609 3.22280762 -5.68269531 2.72442383 -4.69921875 2.2109375 C-3.84158936 1.76024902 -2.98395996 1.30956055 -2.1003418 0.84521484 C-1.407229 0.56629395 -0.71411621 0.28737305 0 0 Z " fill="#507046" transform="translate(196,15)"/>
<path d="M0 0 C10.65094703 0.96826791 20.45555824 5.41566183 30 10 C30 10.66 30 11.32 30 12 C30.721875 12.20625 31.44375 12.4125 32.1875 12.625 C35.9255306 14.45248163 37.49246917 16.70438806 40 20 C39.45835205 19.81896729 38.9167041 19.63793457 38.35864258 19.45141602 C34.35017286 18.11325342 30.33986599 16.78132417 26.32421875 15.46484375 C24.77864583 14.95572917 23.23307292 14.44661458 21.6875 13.9375 C20.90310547 13.68162109 20.11871094 13.42574219 19.31054688 13.16210938 C18.55193359 12.91138672 17.79332031 12.66066406 17.01171875 12.40234375 C16.33584717 12.18054443 15.65997559 11.95874512 14.96362305 11.73022461 C12.88919851 10.95879557 10.96110868 10.02284203 9 9 C9 8.67 9 8.34 9 8 C6.03 7.505 6.03 7.505 3 7 C3.66 6.01 4.32 5.02 5 4 C5.99 4 6.98 4 8 4 C5.36 3.01 2.72 2.02 0 1 C0 0.67 0 0.34 0 0 Z " fill="#3A88BE" transform="translate(48,147)"/>
<path d="M0 0 C0 3.66367093 -1.07817872 4.22371319 -3.52554321 6.72431946 C-10.95800862 14.68496634 -11.14214502 22.26047712 -10.87890625 32.78320312 C-10.79538923 34.79301554 -10.71074024 36.80278121 -10.625 38.8125 C-10.57474146 40.87293791 -10.52913142 42.93349471 -10.48828125 44.99414062 C-10.37906661 49.99907496 -10.20709413 54.99819887 -10 60 C-9.53823868 59.52423523 -9.07647736 59.04847046 -8.60072327 58.55828857 C-7.98490891 57.93158264 -7.36909454 57.30487671 -6.73461914 56.65917969 C-5.82541466 55.72897003 -5.82541466 55.72897003 -4.89784241 54.77996826 C-2.0284467 52.08878945 1.15499785 50.18219672 4.5625 48.25 C5.19607422 47.87746094 5.82964844 47.50492188 6.48242188 47.12109375 C10.24269739 44.92921327 14.01491338 42.75554477 18 41 C18.66 41.33 19.32 41.66 20 42 C19.195625 42.28875 18.39125 42.5775 17.5625 42.875 C14.8673532 43.73262568 14.8673532 43.73262568 14 46 C12.5456677 46.75801563 11.0602054 47.45675703 9.5625 48.125 C1.63952171 51.96162846 -5.00157407 57.60167901 -11 64 C-11.66 63.67 -12.32 63.34 -13 63 C-13.28187984 56.56388887 -13.47273235 50.12939788 -13.60424805 43.68847656 C-13.65913478 41.50395255 -13.73387872 39.31982441 -13.82983398 37.13671875 C-14.35684939 24.8265408 -14.64301404 15.40630017 -6.05387878 5.91244507 C-4.74162933 4.56901778 -3.37415054 3.28004133 -2 2 C-1.34 1.34 -0.68 0.68 0 0 Z " fill="#707A7C" transform="translate(128,115)"/>
<path d="M0 0 C0.721875 0.598125 1.44375 1.19625 2.1875 1.8125 C5.42294836 4.32895984 8.75984865 6.34116959 12.375 8.26171875 C15.39515379 10.26167178 17.25177491 12.41596978 19.5 15.25 C20.27214844 16.22324219 21.04429688 17.19648438 21.83984375 18.19921875 C29 27.48282098 29 27.48282098 29 30 C27.68 29.67 26.36 29.34 25 29 C25 28.01 25 27.02 25 26 C24.34 26 23.68 26 23 26 C23 25.34 23 24.68 23 24 C22.484375 23.773125 21.96875 23.54625 21.4375 23.3125 C15.838174 20.29747831 11.4840147 16.4840147 7 12 C5.948125 11.360625 4.89625 10.72125 3.8125 10.0625 C0.47565068 7.61547716 -0.21541044 6.0101244 -1 2 C-0.67 1.34 -0.34 0.68 0 0 Z " fill="#3C8FCB" transform="translate(83,147)"/>
<path d="M0 0 C13.69630926 2.75580811 26.75845352 6.77613553 39.71484375 11.9765625 C38.72484375 10.9865625 37.73484375 9.9965625 36.71484375 8.9765625 C47.35300164 12.84498355 47.35300164 12.84498355 50.15234375 17.2265625 C50.33796875 17.8040625 50.52359375 18.3815625 50.71484375 18.9765625 C48.71484375 19.9765625 48.71484375 19.9765625 46.77734375 19.7265625 C44.71484375 18.9765625 44.71484375 18.9765625 43.453125 17.59765625 C41.1421227 15.44245185 38.75214207 14.49828362 35.83984375 13.2890625 C34.81117187 12.85207031 33.7825 12.41507813 32.72265625 11.96484375 C29.81561918 10.82790853 29.81561918 10.82790853 27.01953125 11.01953125 C24.71484375 10.9765625 24.71484375 10.9765625 23.31811523 9.55615234 C21.4711614 7.73647954 20.24521294 7.31165279 17.7578125 6.66015625 C16.98244141 6.45422852 16.20707031 6.24830078 15.40820312 6.03613281 C14.16780273 5.72820801 14.16780273 5.72820801 12.90234375 5.4140625 C11.6174707 5.08873535 11.6174707 5.08873535 10.30664062 4.75683594 C-3.13913355 1.4431616 -16.50007074 0.53502012 -30.28515625 -0.0234375 C-22.44077232 -5.25302679 -8.89070182 -1.67338955 0 0 Z " fill="#234A6F" transform="translate(47.28515625,154.0234375)"/>
<path d="M0 0 C0.33 0 0.66 0 1 0 C1 12.54 1 25.08 1 38 C6.61 38.99 12.22 39.98 18 41 C21.00046042 41.81896625 23.74942384 42.6026927 26.625 43.6875 C27.30884766 43.93661133 27.99269531 44.18572266 28.69726562 44.44238281 C48.46238032 51.92476064 48.46238032 51.92476064 51 57 C46.50056072 56.0001246 41.91731133 54.5666919 38.3125 51.62109375 C35.3916993 49.57357299 32.31627225 48.31102725 29 47.0625 C28.31808594 46.80452637 27.63617188 46.54655273 26.93359375 46.28076172 C18.20194833 43.14307071 9.11639887 41.58789734 0 40 C-1.12367611 35.59231424 -1.04360745 31.36228135 -0.87890625 26.85546875 C-0.85529526 26.08568192 -0.83168427 25.31589508 -0.80735779 24.52278137 C-0.73112309 22.07748095 -0.6469275 19.63252989 -0.5625 17.1875 C-0.50923899 15.52410532 -0.4564989 13.86069387 -0.40429688 12.19726562 C-0.2755628 8.13129151 -0.13969106 4.06561182 0 0 Z " fill="#285268" transform="translate(32,96)"/>
<path d="M0 0 C0.33 0 0.66 0 1 0 C1 20.13 1 40.26 1 61 C7.27 56.71 13.54 52.42 20 48 C21.98 46.68 23.96 45.36 26 44 C26.66 44.33 27.32 44.66 28 45 C25.03 47.475 25.03 47.475 22 50 C22.33 50.66 22.66 51.32 23 52 C21.01432292 52.42317708 19.02864583 52.84635417 17.04296875 53.26953125 C14.64948158 54.12532877 13.75030933 55.17658193 12 57 C10.15014321 58.26669079 8.27252994 59.49340794 6.375 60.6875 C5.39273438 61.31011719 4.41046875 61.93273437 3.3984375 62.57421875 C1 64 1 64 0 64 C-0.15395604 56.24616612 -0.30213621 48.49224522 -0.4429636 40.73816299 C-0.5085379 37.13755504 -0.57609382 33.5370071 -0.64819336 29.93652344 C-0.71771272 26.46123415 -0.78200722 22.98588372 -0.84269524 19.51042938 C-0.87845297 17.54059562 -0.91960724 15.57086222 -0.96083069 13.60113525 C-0.98092697 12.40019226 -1.00102325 11.19924927 -1.02172852 9.96191406 C-1.04171402 8.90490295 -1.06169952 7.84789185 -1.08229065 6.7588501 C-1.00941247 4.31555937 -0.71263508 2.32577363 0 0 Z " fill="#254653" transform="translate(32,20)"/>
<path d="M0 0 C0.763125 0.309375 1.52625 0.61875 2.3125 0.9375 C4.18789677 1.67893593 6.08684652 2.36228217 8 3 C8.598125 3.61875 9.19625 4.2375 9.8125 4.875 C12.31850737 7.30940716 14.83619841 8.56190837 18 10 C18 10.66 18 11.32 18 12 C19.32 12 20.64 12 22 12 C22.474375 12.515625 22.94875 13.03125 23.4375 13.5625 C24.2109375 14.2740625 24.2109375 14.2740625 25 15 C28.01071639 14.84946418 29.52068815 14.41319987 31.8125 12.4375 C32.204375 11.963125 32.59625 11.48875 33 11 C33.495 12.485 33.495 12.485 34 14 C28.75524688 18.02504309 28.75524688 18.02504309 25.76171875 17.92578125 C21.88065736 16.62477481 18.83804116 14.45832382 15.5 12.125 C8.19071794 6.27740844 8.19071794 6.27740844 -0.3125 4.3125 C-1.6428125 4.6528125 -1.6428125 4.6528125 -3 5 C-2.67 4.01 -2.34 3.02 -2 2 C-1.34 2 -0.68 2 0 2 C0 1.34 0 0.68 0 0 Z " fill="#4F815D" transform="translate(63,70)"/>
<path d="M0 0 C9.70378467 1.80116653 18.92347731 10.55998993 26 17 C26.66 17.99 27.32 18.98 28 20 C24.7 22.31 21.4 24.62 18 27 C17.34 26.67 16.68 26.34 16 26 C17.1196986 24.99406757 18.2459412 23.9954151 19.375 23 C20.00148438 22.443125 20.62796875 21.88625 21.2734375 21.3125 C23 20 23 20 25 20 C20.90034391 15.57367808 16.34265644 12.274369 11.375 8.875 C9.86007706 7.83349048 8.34698256 6.78931521 6.8359375 5.7421875 C6.17126465 5.2869873 5.5065918 4.83178711 4.82177734 4.36279297 C3.04167579 3.03117586 1.52791511 1.61079311 0 0 Z " fill="#426D78" transform="translate(88,39)"/>
<path d="M0 0 C0 3.36778961 -0.31971305 3.78081855 -2.3125 6.3125 C-2.8590625 7.01503906 -3.405625 7.71757813 -3.96875 8.44140625 C-4.6390625 9.28574219 -5.309375 10.13007812 -6 11 C-7.30167068 12.65159898 -8.6017377 14.30445378 -9.90185547 15.95727539 C-10.84536107 17.15633417 -11.78970285 18.35473544 -12.73486328 19.55249023 C-17.25701548 25.29440299 -21.64580664 31.12990228 -26 37 C-27.32 36.34 -28.64 35.68 -30 35 C-29.27039063 34.62488281 -28.54078125 34.24976563 -27.7890625 33.86328125 C-24.51047478 31.67296424 -22.71321574 29.35855847 -20.375 26.1875 C-19.50608854 25.02408167 -18.63626258 23.86134591 -17.765625 22.69921875 C-17.09176758 21.79308838 -17.09176758 21.79308838 -16.40429688 20.86865234 C-14.02794212 17.70651408 -11.57551632 14.60478843 -9.125 11.5 C-8.44703369 10.63797974 -8.44703369 10.63797974 -7.75537109 9.75854492 C-5.18577833 6.49316046 -2.60013878 3.24110322 0 0 Z " fill="#53765A" transform="translate(124,103)"/>
<path d="M0 0 C2.80019325 1.27533764 4.82749489 2.58523398 6.97680664 4.78149414 C7.80270042 5.61729759 7.80270042 5.61729759 8.64527893 6.46998596 C9.22768845 7.06899216 9.81009796 7.66799835 10.41015625 8.28515625 C11.0188707 8.90144394 11.62758514 9.51773163 12.25474548 10.1526947 C14.1955466 12.117891 16.12976388 14.08937332 18.0625 16.0625 C20.61016666 18.6632628 23.16429626 21.25741664 25.72265625 23.84765625 C26.30709 24.44868668 26.89152374 25.0497171 27.4936676 25.66896057 C30.79089184 29.02051976 30.79089184 29.02051976 35 31 C35 31.66 35 32.32 35 33 C31.09704683 32.44598261 29.34309424 30.69343607 26.62890625 27.921875 C25.80712891 27.09042969 24.98535156 26.25898438 24.13867188 25.40234375 C23.28853516 24.52707031 22.43839844 23.65179688 21.5625 22.75 C20.71623047 21.89019531 19.86996094 21.03039062 18.99804688 20.14453125 C16.66008625 17.76812335 14.32912617 15.38506177 12 13 C8.61666132 9.54125492 5.1187688 6.37316285 1.35546875 3.33203125 C0.90816406 2.89246094 0.46085937 2.45289062 0 2 C0 1.34 0 0.68 0 0 Z " fill="#416B4E" transform="translate(62,108)"/>
<path d="M0 0 C0.99 0.33 1.98 0.66 3 1 C2.55309814 1.34144043 2.10619629 1.68288086 1.64575195 2.03466797 C-7.91526895 9.34035014 -17.46813127 16.65631679 -27 24 C-27.66 23.67 -28.32 23.34 -29 23 C-24.30292382 18.78926958 -19.52335514 14.74125357 -14.5078125 10.9140625 C-12.61377736 9.46845935 -10.73635271 8.00105688 -8.8671875 6.5234375 C-7.78678883 5.68186721 -6.7060625 4.84071739 -5.625 4 C-4.62726563 3.21625 -3.62953125 2.4325 -2.6015625 1.625 C-1.74304688 1.08875 -0.88453125 0.5525 0 0 Z " fill="#547850" transform="translate(125,59)"/>
<path d="M0 0 C0 4.38618346 -2.73456783 6.55175811 -5.5 9.6875 C-6.02464844 10.29400391 -6.54929688 10.90050781 -7.08984375 11.52539062 C-8.38666902 13.02263435 -9.69249362 14.51207472 -11 16 C-10.67 16.66 -10.34 17.32 -10 18 C-10.73605469 18.39832031 -11.47210938 18.79664062 -12.23046875 19.20703125 C-15.14700311 21.09516844 -17.06127539 23.05471189 -19.3125 25.6875 C-20.35857422 26.89986328 -20.35857422 26.89986328 -21.42578125 28.13671875 C-22.20501953 29.05904297 -22.20501953 29.05904297 -23 30 C-23 25.64778028 -20.33010707 23.58915133 -17.5625 20.5 C-16.46116764 19.2457321 -15.36091921 17.99051165 -14.26171875 16.734375 C-13.71177246 16.10853516 -13.16182617 15.48269531 -12.59521484 14.83789062 C-9.55464209 11.33476364 -6.6566086 7.71770588 -3.7421875 4.109375 C-2 2 -2 2 0 0 Z " fill="#5B7A59" transform="translate(177,39)"/>
<path d="M0 0 C4.47419214 1.40617467 6.72845797 3.72845797 10 7 C10.99 7 11.98 7 13 7 C14.60546875 8.6796875 14.60546875 8.6796875 16.1875 10.875 C16.71730469 11.59429687 17.24710938 12.31359375 17.79296875 13.0546875 C19 15 19 15 19 17 C17.68 16.67 16.36 16.34 15 16 C15 15.01 15 14.02 15 13 C14.34 13 13.68 13 13 13 C13 12.34 13 11.68 13 11 C12.484375 10.773125 11.96875 10.54625 11.4375 10.3125 C1.6875 5.0625 1.6875 5.0625 0 0 Z " fill="#476A85" transform="translate(93,160)"/>
<path d="M0 0 C10.63815789 3.86842105 10.63815789 3.86842105 13.4375 8.25 C13.623125 8.8275 13.80875 9.405 14 10 C12 11 12 11 10.125 10.875 C7.08747379 9.62425391 5.91615397 7.63471171 4 5 C3.2575 4.071875 2.515 3.14375 1.75 2.1875 C1.1725 1.465625 0.595 0.74375 0 0 Z " fill="#305788" transform="translate(84,163)"/>
<path d="M0 0 C3.36335594 1.45745424 5.54534005 3.31117854 8.109375 5.9140625 C8.86347656 6.67460938 9.61757813 7.43515625 10.39453125 8.21875 C11.17183594 9.0128125 11.94914062 9.806875 12.75 10.625 C13.54277344 11.42679688 14.33554687 12.22859375 15.15234375 13.0546875 C17.10614493 15.03202846 19.05512103 17.01388909 21 19 C20.67 19.66 20.34 20.32 20 21 C19.50072998 20.49549316 19.00145996 19.99098633 18.48706055 19.47119141 C16.22316623 17.18650811 13.95538655 14.90572018 11.6875 12.625 C10.90181641 11.8309375 10.11613281 11.036875 9.30664062 10.21875 C8.54931641 9.45820312 7.79199219 8.69765625 7.01171875 7.9140625 C6.31522217 7.2123291 5.61872559 6.5105957 4.90112305 5.78759766 C2.92409164 3.82960744 2.92409164 3.82960744 0 2 C0 1.34 0 0.68 0 0 Z " fill="#305B6A" transform="translate(32,94)"/>
<path d="M0 0 C0.66 0.33 1.32 0.66 2 1 C0.02 2.65 -1.96 4.3 -4 6 C-3.67 6.66 -3.34 7.32 -3 8 C-4.258125 8.268125 -5.51625 8.53625 -6.8125 8.8125 C-10.07150972 9.61144595 -11.83180072 10.34997865 -14 13 C-14.66 13 -15.32 13 -16 13 C-14.89039427 9.67118282 -14.42884616 9.33631222 -11.62109375 7.51953125 C-10.94755859 7.07802734 -10.27402344 6.63652344 -9.58007812 6.18164062 C-8.87302734 5.72982422 -8.16597656 5.27800781 -7.4375 4.8125 C-6.72658203 4.34908203 -6.01566406 3.88566406 -5.28320312 3.40820312 C-3.52687504 2.26482175 -1.7640395 1.13144772 0 0 Z " fill="#3B8398" transform="translate(58,64)"/>
<path d="M0 0 C0 3.57430369 -0.57148438 3.93787409 -2.9375 6.4375 C-5.33548905 8.97154516 -6.21001028 10.6336474 -7 14 C-9 15.125 -9 15.125 -11 16 C-11.33 16.66 -11.66 17.32 -12 18 C-12.66 18 -13.32 18 -14 18 C-11.83044853 11.67214155 -7.71980197 7.59878141 -3 3 C-2.401875 2.401875 -1.80375 1.80375 -1.1875 1.1875 C-0.795625 0.795625 -0.40375 0.40375 0 0 Z " fill="#98CD60" transform="translate(160,57)"/>
<path d="M0 0 C0.66 0.33 1.32 0.66 2 1 C0.20587603 3.19281818 -0.9601806 3.98713083 -3.6953125 4.87109375 C-8.52785012 6.52192516 -12.74648743 9.11586441 -17.171875 11.63671875 C-18.10515625 12.08660156 -19.0384375 12.53648438 -20 13 C-20.66 12.67 -21.32 12.34 -22 12 C-14.94214379 7.59664723 -7.72213007 3.14016998 0 0 Z " fill="#4C6743" transform="translate(196,15)"/>
<path d="M0 0 C0.33 0 0.66 0 1 0 C1 6.93 1 13.86 1 21 C4.63 21 8.26 21 12 21 C8.38863788 22.80568106 7.455469 23.24851563 3.75 23.125 C2.5125 23.08375 1.275 23.0425 0 23 C-1.25050287 20.49899426 -1.02993449 18.99656948 -0.87890625 16.2109375 C-0.83056641 15.26992187 -0.78222656 14.32890625 -0.73242188 13.359375 C-0.67634766 12.37453125 -0.62027344 11.3896875 -0.5625 10.375 C-0.51029297 9.38242188 -0.45808594 8.38984375 -0.40429688 7.3671875 C-0.27441051 4.91115432 -0.13943836 2.4555064 0 0 Z " fill="#173451" transform="translate(8,131)"/>
<path d="M0 0 C0 3.47525973 -0.5352987 4.04590322 -2.625 6.6875 C-3.16640625 7.38230469 -3.7078125 8.07710937 -4.265625 8.79296875 C-4.83796875 9.52128906 -5.4103125 10.24960938 -6 11 C-7.12865716 12.49725015 -8.25384764 13.99712196 -9.375 15.5 C-10.25 16.66666667 -11.125 17.83333333 -12 19 C-12.33 18.01 -12.66 17.02 -13 16 C-11.92016602 14.19067383 -11.92016602 14.19067383 -10.25390625 12.20703125 C-9.66416016 11.49482422 -9.07441406 10.78261719 -8.46679688 10.04882812 C-7.83837891 9.31083984 -7.20996094 8.57285156 -6.5625 7.8125 C-5.93794922 7.06291016 -5.31339844 6.31332031 -4.66992188 5.54101562 C-3.12224706 3.68616871 -1.56547724 1.83982294 0 0 Z " fill="#597A61" transform="translate(124,103)"/>
<path d="M0 0 C-0.34879632 3.25543229 -1.02133261 4.01873107 -3.5625 6.25 C-4.366875 6.8275 -5.17125 7.405 -6 8 C-7.32 7.01 -8.64 6.02 -10 5 C-8.71186658 4.16121545 -7.41936744 3.32913217 -6.125 2.5 C-5.40570313 2.0359375 -4.68640625 1.571875 -3.9453125 1.09375 C-2 0 -2 0 0 0 Z " fill="#7FAF57" transform="translate(195,18)"/>
<path d="M0 0 C2.97 0.33 5.94 0.66 9 1 C9.33 1.99 9.66 2.98 10 4 C8.02 4.66 6.04 5.32 4 6 C4 5.34 4 4.68 4 4 C1.03 3.505 1.03 3.505 -2 3 C-1.34 2.01 -0.68 1.02 0 0 Z " fill="#3E9CEC" transform="translate(53,151)"/>
<path d="M0 0 C4.41510774 0.48713098 6.30446645 1.85053197 9.3125 5.0625 C10.00988281 5.79597656 10.70726563 6.52945313 11.42578125 7.28515625 C11.94527344 7.85105469 12.46476562 8.41695312 13 9 C12.67 9.66 12.34 10.32 12 11 C3.55353075 3.70159453 3.55353075 3.70159453 0 0 Z " fill="#51B4EF" transform="translate(91,157)"/>
<path d="M0 0 C0 3.97378549 -1.34753657 5.12649795 -4 8 C-6.25 9.3125 -6.25 9.3125 -8 10 C-9 9 -9 9 -9.0625 5.9375 C-9.041875 4.968125 -9.02125 3.99875 -9 3 C-8.67 4.32 -8.34 5.64 -8 7 C-5.36 4.69 -2.72 2.38 0 0 Z " fill="#566D7E" transform="translate(124,169)"/>
<path d="M0 0 C0.99 0.33 1.98 0.66 3 1 C-0.02272532 4.25524265 -3.25718301 6.61820737 -7 9 C-7.66 8.67 -8.32 8.34 -9 8 C-7.8803014 6.99406757 -6.7540588 5.9954151 -5.625 5 C-4.68527344 4.1646875 -4.68527344 4.1646875 -3.7265625 3.3125 C-2 2 -2 2 0 2 C0 1.34 0 0.68 0 0 Z " fill="#4F7C7E" transform="translate(113,57)"/>
<path d="M0 0 C5.00918744 1.47329042 7.51807722 4.27515238 11 8 C10.67 8.66 10.34 9.32 10 10 C8.7010161 9.09373216 7.41106833 8.17450463 6.125 7.25 C5.40570313 6.73953125 4.68640625 6.2290625 3.9453125 5.703125 C1.91429435 3.92496453 1.02144988 2.47298393 0 0 Z " fill="#31557B" transform="translate(93,160)"/>
<path d="M0 0 C5.94 0.99 5.94 0.99 12 2 C11.67 2.66 11.34 3.32 11 4 C5.06 3.01 5.06 3.01 -1 2 C-0.67 1.34 -0.34 0.68 0 0 Z " fill="#2D6686" transform="translate(38,135)"/>
<path d="M0 0 C0.763125 0.309375 1.52625 0.61875 2.3125 0.9375 C4.18789677 1.67893593 6.08684652 2.36228217 8 3 C7.67 3.66 7.34 4.32 7 5 C5.906875 4.814375 4.81375 4.62875 3.6875 4.4375 C0.06375867 3.7421932 0.06375867 3.7421932 -3 5 C-2.67 4.01 -2.34 3.02 -2 2 C-1.34 2 -0.68 2 0 2 C0 1.34 0 0.68 0 0 Z " fill="#4D8373" transform="translate(63,70)"/>
<path d="M0 0 C3.7952131 1.49097658 5.61042731 3.75700849 8 7 C5 7 5 7 2.3125 4.625 C0 2 0 2 0 0 Z " fill="#4C7650" transform="translate(55,101)"/>
<path d="M0 0 C3.29696105 1.09898702 4.04670589 1.94597387 6.1875 4.5625 C6.71730469 5.20316406 7.24710937 5.84382812 7.79296875 6.50390625 C8.19128906 6.99761719 8.58960937 7.49132812 9 8 C8.67 8.66 8.34 9.32 8 10 C6.66070495 8.71451591 5.32871357 7.42141845 4 6.125 C2.88625 5.04605469 2.88625 5.04605469 1.75 3.9453125 C0 2 0 2 0 0 Z " fill="#315273" transform="translate(95,156)"/>
<path d="M0 0 C3.3 0.33 6.6 0.66 10 1 C9 3 9 3 7.25 3.75 C4.35569775 4.07158914 2.59934027 3.22746624 0 2 C0 1.34 0 0.68 0 0 Z " fill="#61D2F7" transform="translate(13,37)"/>
<path d="M0 0 C0.66 0.66 1.32 1.32 2 2 C1.67 2.99 1.34 3.98 1 5 C-0.65 5 -2.3 5 -4 5 C-4 4.34 -4 3.68 -4 3 C-2 1.375 -2 1.375 0 0 Z " fill="#6CAC56" transform="translate(47,84)"/>
<path d="M0 0 C2.49361571 1.20381448 4.68143083 2.45428722 7 4 C7 4.66 7 5.32 7 6 C5.68 6.33 4.36 6.66 3 7 C2.87625 6.401875 2.7525 5.80375 2.625 5.1875 C2.04524015 2.73768652 2.04524015 2.73768652 0 0 Z " fill="#66D2F4" transform="translate(106,53)"/>
<path d="M0 0 C4 1 4 1 4 1 Z " fill="#728CE5" transform="translate(62,64)"/>
<path d="M0 0 C0.66 0.66 1.32 1.32 2 2 C1.34 2 0.68 2 0 2 C0 1.34 0 0.68 0 0 Z " fill="#54A9A9" transform="translate(92,161)"/>
<path d="M0 0 C3 1 3 1 3 1 Z " fill="#4646B8" transform="translate(82,156)"/>
<path d="M0 0 C0.33 0.66 0.66 1.32 1 2 C0.34 1.67 -0.32 1.34 -1 1 C-0.67 0.67 -0.34 0.34 0 0 Z " fill="#E9E9E9" transform="translate(172,150)"/>
<path d="M0 0 C0.66 0 1.32 0 2 0 C1.67 0.66 1.34 1.32 1 2 C0.67 1.34 0.34 0.68 0 0 Z " fill="#46B8E2" transform="translate(59,143)"/>
<path d="" fill="#FFFFFF" transform="translate(0,0)"/>
<path d="" fill="#C6C6C6" transform="translate(0,0)"/>
<path d="M0 0 C0.66 0.66 1.32 1.32 2 2 C1.34 2 0.68 2 0 2 C0 1.34 0 0.68 0 0 Z " fill="#2AD4D4" transform="translate(41,83)"/>
<path d="M0 0 C0.99 0.495 0.99 0.495 2 1 C1.01 1.495 1.01 1.495 0 2 C0 1.34 0 0.68 0 0 Z " fill="#2AD4D4" transform="translate(91,79)"/>
<path d="M0 0 C3 1 3 1 3 1 Z " fill="#2AD4D4" transform="translate(40,17)"/>
<path d="M0 0 C2 1 2 1 2 1 Z " fill="#0000FF" transform="translate(56,159)"/>
<path d="M0 0 C2 1 2 1 2 1 Z " fill="#3F3FBF" transform="translate(39,156)"/>
<path d="M0 0 C2 1 2 1 2 1 Z " fill="#FFFFFF" transform="translate(168,151)"/>
<path d="" fill="#00FFFF" transform="translate(0,0)"/>
<path d="" fill="#3FBFBF" transform="translate(0,0)"/>
<path d="" fill="#FFFFFF" transform="translate(0,0)"/>
<path d="M0 0 C2 1 2 1 2 1 Z " fill="#FFFFFF" transform="translate(143,89)"/>
<path d="" fill="#00FFFF" transform="translate(0,0)"/>
<path d="" fill="#FFFFFF" transform="translate(0,0)"/>
<path d="" fill="#FFFFFF" transform="translate(0,0)"/>
<path d="" fill="#BFFFBF" transform="translate(0,0)"/>
<path d="" fill="#DFDFDF" transform="translate(0,0)"/>
<path d="" fill="#BFDFBF" transform="translate(0,0)"/>
<path d="M0 0 C2 1 2 1 2 1 Z " fill="#3FBFBF" transform="translate(84,34)"/>
<path d="M0 0 C2 1 2 1 2 1 Z " fill="#7F7F7F" transform="translate(11,33)"/>
<path d="" fill="#7F7F7F" transform="translate(0,0)"/>
<path d="M0 0 C2 1 2 1 2 1 Z " fill="#5F7F9F" transform="translate(68,26)"/>
<path d="" fill="#7F7F7F" transform="translate(0,0)"/>
<path d="" fill="#0000FF" transform="translate(0,0)"/>
<path d="" fill="#7F7F7F" transform="translate(0,0)"/>
<path d="" fill="#5555AA" transform="translate(0,0)"/>
<path d="" fill="#55AAAA" transform="translate(0,0)"/>
<path d="" fill="#7F7F7F" transform="translate(0,0)"/>
<path d="" fill="#7F7F7F" transform="translate(0,0)"/>
<path d="" fill="#55AAAA" transform="translate(0,0)"/>
<path d="" fill="#7F7F7F" transform="translate(0,0)"/>
<path d="" fill="#55AAAA" transform="translate(0,0)"/>
<path d="" fill="#FFFFFF" transform="translate(0,0)"/>
<path d="" fill="#99CCCC" transform="translate(0,0)"/>
<path d="" fill="#FFFFFF" transform="translate(0,0)"/>
<path d="" fill="#007F7F" transform="translate(0,0)"/>
<path d="" fill="#FFFFFF" transform="translate(0,0)"/>
<path d="" fill="#0000FF" transform="translate(0,0)"/>
<path d="" fill="#0000FF" transform="translate(0,0)"/>
<path d="" fill="#FFFFFF" transform="translate(0,0)"/>
<path d="" fill="#7F7F7F" transform="translate(0,0)"/>
<path d="" fill="#3F7FBF" transform="translate(0,0)"/>
<path d="" fill="#007F7F" transform="translate(0,0)"/>
<path d="" fill="#FFFFFF" transform="translate(0,0)"/>
<path d="" fill="#FFFFFF" transform="translate(0,0)"/>
<path d="" fill="#7F7F7F" transform="translate(0,0)"/>
<path d="" fill="#FFFFFF" transform="translate(0,0)"/>
<path d="" fill="#00FFFF" transform="translate(0,0)"/>
<path d="" fill="#0000FF" transform="translate(0,0)"/>
<path d="" fill="#FFFFFF" transform="translate(0,0)"/>
<path d="" fill="#00FFFF" transform="translate(0,0)"/>
<path d="" fill="#AAFFFF" transform="translate(0,0)"/>
<path d="" fill="#00FFFF" transform="translate(0,0)"/>
<path d="" fill="#FFFFFF" transform="translate(0,0)"/>
<path d="" fill="#FFFFFF" transform="translate(0,0)"/>
<path d="" fill="#FFFFFF" transform="translate(0,0)"/>
<path d="" fill="#FFFFFF" transform="translate(0,0)"/>
<path d="" fill="#FFFFFF" transform="translate(0,0)"/>
<path d="" fill="#FFFFFF" transform="translate(0,0)"/>
<path d="" fill="#FFFFFF" transform="translate(0,0)"/>
<path d="" fill="#FFFFFF" transform="translate(0,0)"/>
<path d="" fill="#7F7F7F" transform="translate(0,0)"/>
<path d="" fill="#00FFFF" transform="translate(0,0)"/>
<path d="" fill="#FFFFFF" transform="translate(0,0)"/>
<path d="" fill="#00FFFF" transform="translate(0,0)"/>
<path d="" fill="#0000FF" transform="translate(0,0)"/>
<path d="" fill="#7F7FFF" transform="translate(0,0)"/>
<path d="" fill="#7F7FFF" transform="translate(0,0)"/>
<path d="" fill="#FFFFFF" transform="translate(0,0)"/>
<path d="" fill="#00FFFF" transform="translate(0,0)"/>
<path d="" fill="#00FFFF" transform="translate(0,0)"/>
<path d="" fill="#00FFFF" transform="translate(0,0)"/>
<path d="" fill="#00FFFF" transform="translate(0,0)"/>
<path d="" fill="#00FFFF" transform="translate(0,0)"/>
<path d="" fill="#4891B6" transform="translate(0,0)"/>
<path d="" fill="#55AAAA" transform="translate(0,0)"/>
<path d="" fill="#FFFFFF" transform="translate(0,0)"/>
<path d="" fill="#7FBF7F" transform="translate(0,0)"/>
<path d="" fill="#55AAAA" transform="translate(0,0)"/>
<path d="" fill="#00FFFF" transform="translate(0,0)"/>
<path d="" fill="#00FFFF" transform="translate(0,0)"/>
<path d="" fill="#00FFFF" transform="translate(0,0)"/>
<path d="" fill="#00FFFF" transform="translate(0,0)"/>
<path d="" fill="#00FFFF" transform="translate(0,0)"/>
<path d="" fill="#FFFFFF" transform="translate(0,0)"/>
<path d="" fill="#FFFFFF" transform="translate(0,0)"/>
<path d="" fill="#00FFFF" transform="translate(0,0)"/>
<path d="" fill="#7FFF7F" transform="translate(0,0)"/>
<path d="" fill="#00FFFF" transform="translate(0,0)"/>
<path d="" fill="#FFFFFF" transform="translate(0,0)"/>
<path d="" fill="#FFFFFF" transform="translate(0,0)"/>
<path d="" fill="#00FFFF" transform="translate(0,0)"/>
<path d="" fill="#00FFFF" transform="translate(0,0)"/>
<path d="" fill="#00FFFF" transform="translate(0,0)"/>
<path d="" fill="#FFFFFF" transform="translate(0,0)"/>
<path d="" fill="#00FFFF" transform="translate(0,0)"/>
<path d="" fill="#3F7FBF" transform="translate(0,0)"/>
<path d="" fill="#FFFFFF" transform="translate(0,0)"/>
<path d="" fill="#FFFFFF" transform="translate(0,0)"/>
<path d="" fill="#00FFFF" transform="translate(0,0)"/>
<path d="" fill="#FFFFFF" transform="translate(0,0)"/>
<path d="" fill="#00FFFF" transform="translate(0,0)"/>
<path d="" fill="#FFFF00" transform="translate(0,0)"/>
<path d="" fill="#7FFFFF" transform="translate(0,0)"/>
<path d="" fill="#00FFFF" transform="translate(0,0)"/>
<path d="" fill="#AAAAAA" transform="translate(0,0)"/>
<path d="" fill="#00FFFF" transform="translate(0,0)"/>
<path d="" fill="#00FFFF" transform="translate(0,0)"/>
<path d="" fill="#FFFFFF" transform="translate(0,0)"/>
<path d="" fill="#7FFFFF" transform="translate(0,0)"/>
<path d="" fill="#00FFFF" transform="translate(0,0)"/>
<path d="" fill="#00FFFF" transform="translate(0,0)"/>
<path d="" fill="#00FFFF" transform="translate(0,0)"/>
<path d="" fill="#FFFFFF" transform="translate(0,0)"/>
<path d="" fill="#00FFFF" transform="translate(0,0)"/>
<path d="" fill="#7FBFBF" transform="translate(0,0)"/>
<path d="" fill="#7F7F7F" transform="translate(0,0)"/>
<path d="" fill="#FFFFFF" transform="translate(0,0)"/>
<path d="" fill="#7F7F7F" transform="translate(0,0)"/>
<path d="" fill="#FFFFFF" transform="translate(0,0)"/>
<path d="" fill="#00FFFF" transform="translate(0,0)"/>
<path d="" fill="#7F7F7F" transform="translate(0,0)"/>
<path d="" fill="#00FFFF" transform="translate(0,0)"/>
<path d="" fill="#7F7F7F" transform="translate(0,0)"/>
<path d="" fill="#55AAAA" transform="translate(0,0)"/>
<path d="" fill="#FFFFFF" transform="translate(0,0)"/>
<path d="" fill="#00FFFF" transform="translate(0,0)"/>
<path d="" fill="#00FFFF" transform="translate(0,0)"/>
<path d="" fill="#7F7F7F" transform="translate(0,0)"/>
<path d="" fill="#FFFFFF" transform="translate(0,0)"/>
<path d="" fill="#FFFFFF" transform="translate(0,0)"/>
<path d="" fill="#FFFFFF" transform="translate(0,0)"/>
<path d="" fill="#FFFFFF" transform="translate(0,0)"/>
<path d="" fill="#7F7F7F" transform="translate(0,0)"/>
<path d="" fill="#FFFF00" transform="translate(0,0)"/>
<path d="" fill="#FFFFFF" transform="translate(0,0)"/>
<path d="" fill="#00FFFF" transform="translate(0,0)"/>
<path d="" fill="#BFBFBF" transform="translate(0,0)"/>
<path d="" fill="#FFFF00" transform="translate(0,0)"/>
<path d="" fill="#00FFFF" transform="translate(0,0)"/>
<path d="" fill="#FFFFFF" transform="translate(0,0)"/>
<path d="" fill="#FFFF00" transform="translate(0,0)"/>
<path d="" fill="#FFFFFF" transform="translate(0,0)"/>
<path d="" fill="#7F7F7F" transform="translate(0,0)"/>
<path d="" fill="#FFFF00" transform="translate(0,0)"/>
<path d="" fill="#00FFFF" transform="translate(0,0)"/>
<path d="" fill="#FFFFFF" transform="translate(0,0)"/>
<path d="" fill="#AAAAAA" transform="translate(0,0)"/>
<path d="" fill="#FFFFFF" transform="translate(0,0)"/>
<path d="" fill="#00FF00" transform="translate(0,0)"/>
<path d="" fill="#00FFFF" transform="translate(0,0)"/>
<path d="" fill="#00FFFF" transform="translate(0,0)"/>
<path d="" fill="#FFFF00" transform="translate(0,0)"/>
<path d="" fill="#55AAAA" transform="translate(0,0)"/>
<path d="" fill="#00FFFF" transform="translate(0,0)"/>
<path d="" fill="#00FFFF" transform="translate(0,0)"/>
<path d="" fill="#7F7F7F" transform="translate(0,0)"/>
<path d="" fill="#7F7F7F" transform="translate(0,0)"/>
<path d="" fill="#00FFFF" transform="translate(0,0)"/>
<path d="" fill="#00FFFF" transform="translate(0,0)"/>
<path d="" fill="#00FFFF" transform="translate(0,0)"/>
<path d="" fill="#55AAAA" transform="translate(0,0)"/>
<path d="" fill="#00FFFF" transform="translate(0,0)"/>
</svg>
